<svg width="16" height="20" viewBox="0 0 16 20" fill="none" xmlns="http://www.w3.org/2000/svg">
<path d="M15 0C15.5523 0 16 0.447716 16 1V18.5C15.1716 18.5 14.5001 19.1716 14.5 20H13.5C13.4999 19.1716 12.8284 18.5 12 18.5C11.1716 18.5 10.5001 19.1716 10.5 20H9.5C9.49994 19.1716 8.82839 18.5 8 18.5C7.17161 18.5 6.50006 19.1716 6.5 20H5.5C5.49994 19.1716 4.82839 18.5 4 18.5C3.17161 18.5 2.50006 19.1716 2.5 20H1.5C1.49994 19.1716 0.828392 18.5 0 18.5V1C0 0.447715 0.447715 6.4426e-08 1 0H15ZM7.85352 3.87988C4.94927 3.42005 2.49546 5.82598 2.85938 8.71094C3.08944 10.5322 4.5279 12.0473 6.33008 12.3828C7.47062 12.5935 8.55339 12.3439 9.41602 11.7881L11.5254 13.8975C11.8993 14.2712 12.5131 14.2711 12.8965 13.8877C13.2701 13.5139 13.2701 12.9002 12.8965 12.5264L10.7871 10.4277C11.3239 9.57461 11.5825 8.54846 11.4004 7.43652C11.1032 5.64402 9.65568 4.16745 7.85352 3.87988ZM7.05859 5.70605C8.35734 5.70605 9.41198 6.75988 9.41211 8.05859C9.41211 9.35742 8.35742 10.4121 7.05859 10.4121C5.75988 10.412 4.70605 9.35734 4.70605 8.05859C4.70618 6.75995 5.75995 5.70618 7.05859 5.70605Z" fill="white"/>
</svg>
